<svg width="52" height="52" viewBox="0 0 52 52" fill="none" xmlns="http://www.w3.org/2000/svg"><path d="M0 .5v9.675a.5.5 0 0 0 .5.5h9.77a.5.5 0 0 1 .5.5v10.057a.5.5 0 0 0 .5.5h9.962a.5.5 0 0 0 .5-.5V.5a.5.5 0 0 0-.5-.5H.5a.5.5 0 0 0-.5.5" fill="#1C156D"></path><path d="M30 .5v9.675a.5.5 0 0 0 .5.5h9.77a.5.5 0 0 1 .5.5v10.057a.5.5 0 0 0 .5.5h9.962a.5.5 0 0 0 .5-.5V.5a.5.5 0 0 0-.5-.5H30.5a.5.5 0 0 0-.5.5m0 29.634v9.675a.5.5 0 0 0 .5.5h9.77a.5.5 0 0 1 .5.5v10.057a.5.5 0 0 0 .5.5h9.962a.5.5 0 0 0 .5-.5V30.134a.5.5 0 0 0-.5-.5H30.5a.5.5 0 0 0-.5.5" fill="#F26522"></path></svg>