<svg width="146" height="31" viewBox="0 0 146 31" fill="none" xmlns="http://www.w3.org/2000/svg"><path d="M41.075 13.886c.9.492 1.94.738 3.123.738 1.182 0 2.234-.246 3.122-.738a5.326 5.326 0 0 0 2.077-2.052c.5-.876.749-1.872.749-2.988V.421H46.6V9.1c0 .5-.105.927-.314 1.282-.208.355-.491.63-.846.818-.354.192-.768.287-1.24.287-.47 0-.876-.095-1.25-.287a2.154 2.154 0 0 1-.886-.83c-.217-.36-.326-.792-.326-1.29V.42h-3.505v8.402c0 1.12.248 2.118.748 3a5.268 5.268 0 0 0 2.097 2.06l-.003.003ZM60.973.964c-.722-.36-1.528-.543-2.422-.543h-6.163v13.986h3.526V9.396h2.64c.89 0 1.7-.178 2.422-.533a4.115 4.115 0 0 0 1.714-1.548c.42-.678.632-1.477.632-2.398 0-.922-.212-1.752-.632-2.416a4.235 4.235 0 0 0-1.714-1.54l-.003.003Zm-1.417 4.98a1.615 1.615 0 0 1-.68.621 2.11 2.11 0 0 1-.934.206h-2.028V3.042h2.028c.343 0 .651.069.934.206.283.138.509.35.68.633.172.283.257.626.257 1.036 0 .409-.085.75-.257 1.024v.003Zm8.842 3.454h2.64c.892 0 1.7-.177 2.423-.532a4.116 4.116 0 0 0 1.714-1.548c.42-.678.631-1.477.631-2.398 0-.922-.211-1.752-.631-2.416A4.235 4.235 0 0 0 73.46.964c-.723-.36-1.531-.543-2.423-.543h-6.162v13.986H68.4V9.396l-.003.002Zm2.029-6.35c.34 0 .651.069.934.206.283.137.508.35.68.632.171.284.257.627.257 1.036 0 .41-.086.75-.257 1.025a1.615 1.615 0 0 1-.68.621 2.11 2.11 0 0 1-.934.206h-2.029V3.045h2.029v.003ZM87.716 14.41v-2.98h-6.833V8.726h6.125v-2.9h-6.125V3.4h6.713V.42H77.357v13.99h10.359Zm5.514-5.664h.206l3.828 5.66h4.077l-4.28-5.835a5.145 5.145 0 0 0 1.031-.349c.735-.349 1.309-.835 1.723-1.46.414-.623.62-1.35.62-2.18 0-.83-.203-1.551-.611-2.17-.409-.618-.969-1.104-1.683-1.459-.714-.355-1.546-.532-2.491-.532h-5.948v13.986h3.525V8.746h.003Zm1.928-5.701c.578 0 1.02.149 1.329.444.309.294.463.68.463 1.153 0 .472-.154.873-.463 1.153-.309.284-.751.424-1.328.424H93.23V3.042h1.928v.003ZM41.97 16.756h-3.523v13.986h9.53v-3.036H41.97v-10.95Zm19.123 1.814a7.04 7.04 0 0 0-2.362-1.527c-.906-.361-1.897-.544-2.974-.544-1.077 0-2.069.18-2.974.544a7.128 7.128 0 0 0-2.363 1.528 7.147 7.147 0 0 0-1.566 2.298 7.181 7.181 0 0 0-.56 2.85c0 1.025.192 1.984.572 2.87a7.09 7.09 0 0 0 1.586 2.319 7.34 7.34 0 0 0 2.373 1.54c.906.369 1.897.552 2.974.552 1.078 0 2.046-.18 2.943-.544a7.03 7.03 0 0 0 2.354-1.54 7.2 7.2 0 0 0 1.566-2.318 7.24 7.24 0 0 0 .56-2.859 7.29 7.29 0 0 0-.56-2.859 7.104 7.104 0 0 0-1.566-2.31h-.003Zm-1.948 7.319a3.45 3.45 0 0 1-1.34 1.44c-.577.343-1.26.511-2.048.511-.592 0-1.123-.094-1.594-.286a3.402 3.402 0 0 1-1.22-.83c-.343-.36-.6-.795-.777-1.302a5.15 5.15 0 0 1-.266-1.706c0-.815.157-1.53.471-2.149a3.394 3.394 0 0 1 1.34-1.43c.577-.336 1.26-.505 2.049-.505.59 0 1.122.098 1.594.295.471.198.88.478 1.22.839.34.36.6.793.777 1.29a4.95 4.95 0 0 1 .265 1.658c0 .83-.157 1.55-.471 2.169v.006Zm12.05-.352 3.757.094c-.057.175-.123.34-.203.498a2.908 2.908 0 0 1-1.22 1.262c-.531.29-1.177.435-1.94.435-.762 0-1.434-.171-2.016-.512a3.629 3.629 0 0 1-1.377-1.44c-.335-.618-.503-1.333-.503-2.149 0-.816.177-1.525.531-2.13a3.78 3.78 0 0 1 1.428-1.41c.598-.335 1.278-.504 2.037-.504.76 0 1.406.143 1.969.424.566.283 1.083.707 1.557 1.273l2.362-2.366c-.63-.776-1.45-1.386-2.462-1.826-1.011-.441-2.14-.661-3.388-.661-1.052 0-2.037.18-2.963.543a7.47 7.47 0 0 0-2.431 1.52 6.942 6.942 0 0 0-1.626 2.29c-.388.875-.58 1.831-.58 2.87 0 1.039.189 1.975.56 2.85.374.876.9 1.64 1.574 2.299a7.185 7.185 0 0 0 2.363 1.528c.9.36 1.88.544 2.945.544 1.418 0 2.663-.298 3.731-.899 1.072-.598 1.909-1.477 2.512-2.633s.905-2.57.905-4.241v-.533h-7.522v2.88-.006Zm12.722-8.781H80.39v13.986h3.526V16.756Zm10.859 6.766a5.54 5.54 0 0 0-1.272-.81c-.46-.209-.922-.395-1.388-.552a29.596 29.596 0 0 1-1.28-.464c-.388-.152-.7-.326-.934-.524a.95.95 0 0 1-.354-.77.81.81 0 0 1 .414-.73c.274-.171.657-.254 1.143-.254.511 0 .985.106 1.417.315.434.209.86.526 1.28.947l2.245-2.23c-.551-.603-1.254-1.078-2.108-1.419-.855-.343-1.786-.512-2.797-.512-1.012 0-1.897.172-2.657.512-.763.344-1.357.827-1.783 1.46-.425.632-.64 1.393-.64 2.29 0 .698.117 1.281.355 1.754.237.475.548.867.934 1.184.385.315.814.581 1.28.799.465.217.93.4 1.397.552.465.152.89.31 1.28.475.388.163.7.355.934.573.237.217.354.489.354.818 0 .355-.16.635-.483.839-.323.203-.777.306-1.368.306-.697 0-1.32-.135-1.872-.404a5.478 5.478 0 0 1-1.557-1.173l-2.225 2.25c.708.763 1.494 1.322 2.354 1.676.86.355 1.874.533 3.043.533 1.76 0 3.128-.38 4.105-1.145.977-.761 1.468-1.84 1.468-3.234 0-.71-.117-1.314-.354-1.814a3.695 3.695 0 0 0-.934-1.242l.003-.006Zm1.722-3.726h4.274v10.946h3.526V19.796h4.271v-3.04h-12.07v3.04Zm17.193-3.04h-3.525v13.986h3.525V16.756Zm10.553 10.761c-.5.203-1.077.306-1.734.306-.566 0-1.08-.094-1.545-.286a3.446 3.446 0 0 1-1.212-.83 3.859 3.859 0 0 1-.797-1.29c-.191-.498-.285-1.06-.285-1.678 0-.618.094-1.176.285-1.677.192-.498.457-.93.797-1.29a3.35 3.35 0 0 1 1.212-.819 4.191 4.191 0 0 1 1.545-.277c.657 0 1.229.106 1.714.314.486.21.892.501 1.22.868l2.363-2.367a7.453 7.453 0 0 0-2.323-1.451c-.88-.35-1.871-.524-2.974-.524-1.103 0-2.025.183-2.925.553a7.51 7.51 0 0 0-2.363 1.52 6.806 6.806 0 0 0-1.574 2.277c-.374.876-.56 1.832-.56 2.87 0 1.04.189 1.981.56 2.86.374.881.9 1.648 1.574 2.298a7.346 7.346 0 0 0 2.374 1.52c.906.363 1.891.543 2.954.543 1.154 0 2.163-.172 3.023-.512a7.636 7.636 0 0 0 2.314-1.44l-2.363-2.366c-.354.38-.78.675-1.28.878Zm14.907-2.75a3.69 3.69 0 0 0-.934-1.242 5.524 5.524 0 0 0-1.271-.81c-.46-.21-.923-.395-1.389-.552a30.058 30.058 0 0 1-1.28-.464c-.388-.152-.699-.326-.934-.524a.951.951 0 0 1-.354-.77.81.81 0 0 1 .414-.73c.275-.171.657-.254 1.143-.254.511 0 .986.106 1.417.315.434.209.86.526 1.28.947l2.245-2.23c-.551-.603-1.254-1.078-2.108-1.419-.854-.343-1.785-.512-2.797-.512-1.011 0-1.897.171-2.657.512-.762.343-1.357.827-1.782 1.46-.426.632-.64 1.393-.64 2.29 0 .697.117 1.281.354 1.753.237.476.548.868.934 1.185.386.315.814.581 1.28.799.466.217.931.4 1.397.552.466.152.891.31 1.28.475.388.166.7.355.934.573.237.217.354.489.354.818 0 .355-.16.635-.482.838-.323.204-.778.307-1.369.307-.697 0-1.32-.135-1.871-.404-.552-.269-1.071-.66-1.557-1.173l-2.226 2.25c.709.763 1.494 1.321 2.354 1.676.86.355 1.875.533 3.043.533 1.76 0 3.128-.38 4.105-1.145.977-.761 1.469-1.84 1.469-3.234 0-.71-.117-1.314-.355-1.814l.003-.006Z" fill="#fff"/><path d="M30.722 9.31V.48a.48.48 0 0 0-.48-.48H12.615a.48.48 0 0 0-.48.48v8.35c0 .266.215.48.48.48h8.334a.48.48 0 0 1 .48.482v8.348c0 .266.214.48.48.48h8.333a.48.48 0 0 0 .48-.48V9.31Z" fill="#EC6907"/><path d="M9.47 30.777A9.43 9.43 0 0 1 2.77 28c-3.693-3.7-3.693-9.722 0-13.423l4.574-4.581 3.8 3.806-4.574 4.582a4.12 4.12 0 0 0 0 5.812 4.102 4.102 0 0 0 5.802 0l4.574-4.582 3.8 3.807-4.574 4.582a9.435 9.435 0 0 1-6.7 2.776l-.002-.003Z" fill="#fff"/><path d="M143.319 30.94a2.382 2.382 0 0 0 2.38-2.384 2.382 2.382 0 0 0-2.38-2.384 2.381 2.381 0 0 0-2.379 2.384 2.381 2.381 0 0 0 2.379 2.384Z" fill="#61A60E"/></svg>