<?xml version="1.0" encoding="UTF-8"?>
<svg version="1.1" xmlns="http://www.w3.org/2000/svg" width="1390" height="1390">
<path d="M0 0 C1.190394 -0.00654048 1.190394 -0.00654048 2.40483636 -0.0132131 C5.06854412 -0.02417608 7.73173501 -0.01374252 10.39543915 -0.00342751 C12.32262579 -0.00688365 14.24981046 -0.01164793 16.17699099 -0.01760924 C21.47643983 -0.03015475 26.77572699 -0.02393268 32.07517648 -0.01465058 C37.78895184 -0.00787498 43.50269901 -0.01833392 49.21646881 -0.02659035 C60.41120229 -0.03994578 71.60587551 -0.03704187 82.80061138 -0.02835242 C91.89700941 -0.02158341 100.99339052 -0.02065577 110.08979034 -0.02392387 C111.38333877 -0.02438357 112.67688719 -0.02484327 114.00963405 -0.0253169 C116.63726946 -0.02627606 119.26490487 -0.0272487 121.89254028 -0.02823468 C145.84171998 -0.03654977 169.7908671 -0.02791967 193.74004156 -0.01220688 C215.60610805 0.0020301 237.47212214 0.00075622 259.33818817 -0.01358986 C283.90088833 -0.02965128 308.46355681 -0.03596985 333.02626181 -0.02675307 C335.64435164 -0.0257974 338.26244147 -0.02485429 340.88053131 -0.02392387 C342.81286925 -0.02322963 342.81286925 -0.02322963 344.78424433 -0.02252137 C353.87206206 -0.01992867 362.95986123 -0.0243085 372.04767609 -0.03136253 C383.11931586 -0.03976734 394.19089181 -0.03751886 405.26252425 -0.0215203 C410.91383861 -0.01362388 416.56504647 -0.01056937 422.21636009 -0.02046776 C427.38659099 -0.02938671 432.55661635 -0.02452803 437.72682852 -0.0085351 C439.60022733 -0.00517542 441.4736434 -0.0069079 443.34703118 -0.01416247 C445.88837683 -0.02325109 448.42901334 -0.01396293 450.97032166 0 C451.70207381 -0.0070235 452.43382596 -0.014047 453.18775243 -0.02128333 C457.86713382 0.03029756 461.0918312 0.75550128 464.98516083 3.37752342 C468.90083751 7.86309086 469.56203092 11.65471067 469.48852539 17.42359734 C469.49433915 18.22057008 469.50015292 19.01754283 469.50614285 19.83866626 C469.52076155 22.51399439 469.50684911 25.18840776 469.4930954 27.86372948 C469.49770357 29.7991678 469.50405592 31.73460263 469.51200438 33.67003012 C469.52873222 38.99232344 469.52043556 44.31433058 469.5080595 49.63662505 C469.4990255 55.37494919 469.51297054 61.11322342 469.52397919 66.8515377 C469.54178662 78.09441298 469.5379145 89.33718158 469.52632862 100.58006108 C469.51730333 109.71555529 469.51606639 118.85101956 469.52042389 127.98651695 C469.52103682 129.2856161 469.52164975 130.58471524 469.52228126 131.92318103 C469.52356013 134.56209045 469.52485698 137.20099985 469.52617162 139.83990926 C469.53725846 163.89194659 469.52575155 187.94392778 469.50480124 211.995956 C469.48581858 233.95602139 469.48751708 255.915994 469.5066452 277.87605858 C469.52806035 302.5442403 469.53648524 327.21236859 469.52419615 351.88055849 C469.52292192 354.50988228 469.52166444 357.13920608 469.52042389 359.76852989 C469.51949824 361.70916017 469.51949824 361.70916017 469.51855388 363.68899509 C469.51509693 372.81589166 469.52093677 381.94275536 469.5303421 391.06964684 C469.54154844 402.18888202 469.53855075 413.30800422 469.51721913 424.42722642 C469.50669039 430.10287151 469.50261803 435.77832807 469.51581573 441.45397186 C469.52770755 446.64646541 469.52123002 451.83859512 469.49990553 457.03105551 C469.49542584 458.91252804 469.49773621 460.79403112 469.50740868 462.67548412 C469.51952718 465.22791305 469.50714439 467.77908669 469.48852539 470.33144951 C469.49789006 471.06641035 469.50725472 471.8013712 469.51690316 472.55860358 C469.44289693 477.61513478 468.16692508 480.48478423 464.98516083 484.37752342 C460.04040257 487.8018439 455.55014892 487.80385284 449.75540924 487.75847435 C448.83501124 487.76315432 447.91461324 487.76783429 446.96632439 487.77265608 C443.88708811 487.78460707 440.80829678 487.77514834 437.72905731 487.76570702 C435.51956167 487.76977263 433.31006806 487.77511446 431.10057831 487.78163719 C425.1028046 487.79531687 419.10518566 487.79000957 413.10740924 487.78049994 C406.83301802 487.77290773 400.55864009 487.77994764 394.28424835 487.78465843 C383.07347659 487.79046652 371.86276867 487.7811412 360.65201194 487.76588042 C350.48901953 487.75247426 340.32612991 487.75480848 330.16313934 487.7686367 C318.35674605 487.78469352 306.55040253 487.79066633 294.7439962 487.78179991 C288.49580642 487.77711981 282.24768744 487.77650794 275.99950218 487.78640938 C270.12668421 487.79506589 264.25406067 487.78908104 258.38126373 487.77172661 C256.2241479 487.76775494 254.06701575 487.7689074 251.90990639 487.7755146 C248.96902517 487.78369303 246.02876993 487.77345311 243.08792877 487.75847435 C242.23112233 487.76516652 241.37431589 487.77185868 240.49154562 487.77875364 C234.37656118 487.7181994 231.25225477 486.48524222 226.70383549 482.25657368 C224.29668479 478.22421782 224.43329784 474.92818986 224.48636627 470.31271935 C224.47828944 468.94058766 224.47828944 468.94058766 224.47004944 467.54073614 C224.45677106 464.47442228 224.47192905 461.40890785 224.48686981 458.34261131 C224.48304708 456.14473668 224.47742843 453.94686454 224.47014618 451.74899864 C224.45818689 447.01538583 224.45869176 442.28199478 224.46874046 437.54837799 C224.48428287 430.06494836 224.47063593 422.58174717 224.45270538 415.09833336 C224.43044723 404.60781126 224.41996088 394.11733425 224.42095184 383.626791 C224.42103933 382.62854649 224.42103933 382.62854649 224.42112858 381.61013543 C224.42139442 378.91371067 224.42171171 376.21728593 224.42209184 373.52086118 C224.42305795 366.10011581 224.42173042 358.67937184 224.41899872 351.25862694 C224.41875883 350.59424596 224.41851893 349.92986499 224.41827177 349.24535126 C224.41386391 338.16424111 224.39753632 327.08317011 224.37377793 316.00208467 C224.3588276 308.56154884 224.35912696 301.1212146 224.37125576 293.68067563 C224.37596161 289.05329574 224.36845471 284.42599325 224.35771179 279.79862595 C224.3553026 277.6516025 224.35805172 275.50456618 224.36631966 273.3575573 C224.37692727 270.42793696 224.36919947 267.49891217 224.35697174 264.56931114 C224.3645478 263.71862637 224.37212385 262.8679416 224.37992948 261.9914785 C224.32818126 256.14909538 223.33676011 252.04639013 219.35390186 247.52618217 C215.70448094 245.75649135 212.05595486 245.96682686 208.08530426 245.99898338 C206.72163789 245.99218819 206.72163789 245.99218819 205.3304227 245.98525572 C202.27728386 245.97360764 199.2245811 245.98328859 196.17144012 245.9927578 C193.98518846 245.98865376 191.79893898 245.98319388 189.61269379 245.97647667 C184.90092972 245.96473771 180.18928284 245.96227237 175.47750664 245.96683311 C168.02750779 245.97363134 160.57766366 245.95779397 153.12769318 245.93843651 C142.68247893 245.91341299 132.23728675 245.89668432 121.79204559 245.88875389 C121.12923668 245.88824671 120.46642776 245.88773953 119.78353373 245.88721699 C115.07990962 245.88369051 110.37628528 245.88056138 105.67266083 245.87752342 C100.30490345 245.8740555 94.93714627 245.87040599 89.56938934 245.86629295 C88.90829805 245.86579034 88.24720675 245.86528772 87.56608238 245.86476988 C76.53584203 245.85602027 65.50565401 245.83544924 54.47544795 245.80681086 C47.06949186 245.78844233 39.66371192 245.78456689 32.25773847 245.79174614 C27.64887594 245.79326761 23.04010158 245.78248623 18.43126297 245.76836777 C16.2943397 245.76436377 14.1573997 245.76549241 12.02048302 245.7721405 C9.10209581 245.78052209 6.18431881 245.77053122 3.26596832 245.75606346 C1.99912367 245.76640436 1.99912367 245.76640436 0.7066862 245.77695417 C-4.60585469 245.72569044 -8.30308306 244.88449914 -13.01483917 242.37752342 C-18.04910486 237.07829638 -18.16351784 232.5768375 -18.16201019 225.5599575 C-18.16752522 224.19144744 -18.16752522 224.19144744 -18.17315167 222.79529071 C-18.18420162 219.72536525 -18.18803457 216.65547362 -18.19184113 213.58553123 C-18.19810475 211.38957677 -18.20475145 209.19362336 -18.21175385 206.99767113 C-18.22917202 201.02236641 -18.23971768 195.04706969 -18.24795938 189.07174587 C-18.25310744 185.34005977 -18.25918324 181.60837616 -18.2654705 177.87669182 C-18.28343101 166.875036 -18.29780995 155.87338479 -18.30564691 144.8717169 C-18.30708539 142.85867844 -18.30853676 140.84563999 -18.31000519 138.83260155 C-18.31048893 138.16623652 -18.31097267 137.49987148 -18.31147107 136.81331357 C-18.31977106 126.019081 -18.345108 115.22495926 -18.37758587 104.43077508 C-18.41066487 93.34635618 -18.42833602 82.26198342 -18.43186349 71.17751384 C-18.43421635 64.95487684 -18.44320782 58.73241504 -18.46832466 52.50982475 C-18.49157152 46.65590436 -18.4958521 40.80227494 -18.48556328 34.94832039 C-18.485067 32.80009685 -18.49141443 30.65185915 -18.50511932 28.50367928 C-18.52278924 25.5697777 -18.51575588 22.63692594 -18.50258636 19.70302391 C-18.51355561 18.85388774 -18.52452486 18.00475157 -18.5358265 17.129884 C-18.47392975 11.4142783 -17.49228699 7.9824316 -14.01483917 3.37752342 C-9.37114424 0.44547525 -5.36524513 -0.05149666 0 0 Z " fill="#F06523" transform="translate(597.0148391723633,322.6224765777588)"/>
<path d="M0 0 C3.36125815 1.46190184 5.5776559 3.32041308 8.17024231 5.89608765 C8.99335907 6.70922928 9.81647583 7.52237091 10.66453552 8.3601532 C11.5587471 9.2537001 12.45295868 10.14724701 13.37426758 11.06787109 C14.33174269 12.01772247 15.28961834 12.96717025 16.24786377 13.91624451 C18.84544477 16.49190433 21.43644497 19.07408587 24.02562928 21.65818357 C25.64277895 23.27168915 27.26121889 24.88388898 28.88010216 26.49565506 C34.5253162 32.11639019 40.16480064 37.74280893 45.79956055 43.37402344 C51.05695798 48.62777905 56.32736191 53.86823736 61.6038025 59.10286081 C66.13157481 63.5959987 70.64973562 68.09865132 75.16057318 72.60879004 C77.85583627 75.30325846 80.55496699 77.99356243 83.26398659 80.67420578 C85.80883188 83.19298522 88.34156382 85.72333252 90.86534119 88.26321602 C92.23956765 89.64013744 93.62620465 91.00463718 95.0131073 92.36878967 C95.82212494 93.18757095 96.63114258 94.00635223 97.4646759 94.84994507 C98.17571378 95.55897161 98.88675165 96.26799816 99.61933613 96.99851036 C101 99 101 99 101.01136971 100.94768047 C99.5846072 103.84293483 97.64513932 105.71281775 95.35340881 107.98716736 C94.86550021 108.47552254 94.37759161 108.96387772 93.8748979 109.46703154 C92.23619895 111.10364518 90.58702661 112.72928211 88.93774414 114.35522461 C87.761054 115.52615732 86.58504501 116.69777486 85.40966797 117.87002563 C82.87443653 120.39576493 80.33461535 122.91676478 77.7912159 125.43427849 C73.76017708 129.42472403 69.74062722 133.42660869 65.72276306 137.43031311 C56.45470448 146.66222007 47.17184763 155.87920075 37.88858032 165.09580994 C29.40388622 173.51980615 20.92245169 181.94701598 12.45320219 190.38654333 C8.46944087 194.35546048 4.47850457 198.31696778 0.48170388 202.27275169 C-2.02122872 204.75307889 -4.51772611 207.23981051 -7.01264191 209.72819901 C-8.15873917 210.86874605 -9.30739259 212.00673212 -10.45897865 213.14173698 C-20.54554156 223.08779328 -29.84832121 233.58370579 -36.3125 246.3125 C-36.9322168 247.51434937 -36.9322168 247.51434937 -37.56445312 248.74047852 C-41.32910891 256.26309935 -43.97551102 263.8490007 -46 272 C-46.24363281 272.94101562 -46.48726562 273.88203125 -46.73828125 274.8515625 C-49.94194437 289.9763394 -49.14205215 307.16878103 -45 322 C-44.6596875 323.2271875 -44.319375 324.454375 -43.96875 325.71875 C-35.56161089 353.21236708 -16.9240294 374.90607221 8.125 388.625 C23.21956874 396.61771984 39.18121448 400.40492071 56.25 400.3125 C57.34828125 400.30686035 58.4465625 400.3012207 59.578125 400.29541016 C92.54749411 399.80456312 118.14749118 383.50372223 140.61157227 360.6496582 C141.80825773 359.4439132 143.00566243 358.23888168 144.20372009 357.03450012 C146.75548974 354.46662969 149.30260538 351.89426653 151.84613228 349.31823158 C155.86736636 345.24643749 159.90148655 341.18757104 163.93772888 337.13066101 C174.67567988 326.33383029 185.39704232 315.52057785 196.11029142 304.69923896 C203.17439232 297.56400298 210.245512 290.43588982 217.33033985 283.32122868 C221.34648885 279.28700005 225.35091473 275.24158885 229.34700692 271.18749678 C231.82492885 268.67875364 234.31313214 266.18041151 236.80440712 263.68493462 C237.96014194 262.52301238 239.11154537 261.35676396 240.25833511 260.18601227 C241.81926863 258.59366974 243.39471568 257.01728271 244.97486877 255.44404602 C245.85396691 254.55644246 246.73306505 253.6688389 247.63880253 252.75433826 C250 251 250 251 252.05147839 250.98220253 C254.54416603 252.28424155 256.21353752 253.84512805 258.20147705 255.8407135 C259.44660568 257.07965614 259.44660568 257.07965614 260.71688843 258.34362793 C261.6188797 259.25640503 262.52087097 260.16918213 263.45019531 261.10961914 C264.41564582 262.07591594 265.38175755 263.04155247 266.34848022 264.00657654 C268.97062228 266.62785728 271.58340697 269.25828984 274.19462681 271.89044499 C276.92522887 274.63979113 279.66431959 277.38065323 282.40252686 280.12242126 C287.58624199 285.31546352 292.76226189 290.51610629 297.93557048 295.71951336 C303.82564019 301.64310626 309.72422295 307.55819062 315.62354136 313.47257054 C327.75853471 325.63892803 339.88277725 337.8159441 352 350 C350.41078299 353.86161397 347.94398546 356.30757986 345.01210022 359.24186707 C344.49954144 359.75754582 343.98698267 360.27322458 343.45889181 360.80452996 C341.74042756 362.53096995 340.01490458 364.25017482 338.28930664 365.96948242 C337.05522831 367.20627103 335.82157582 368.44348466 334.58831787 369.68109131 C331.23504735 373.04349033 327.87546704 376.39951818 324.51446462 379.75418639 C320.99187184 383.27171366 317.47416405 386.79412069 313.95567322 390.31575012 C308.03841665 396.23664807 302.11695094 402.15331193 296.19311523 408.06762695 C289.36398527 414.88590723 282.54204241 421.71131469 275.72385699 428.54053801 C269.85987603 434.41362906 263.99196343 440.28277053 258.12081808 446.14869958 C254.61907043 449.6473434 251.11865379 453.1472902 247.6217823 456.65080833 C244.32591216 459.95250428 241.0250952 463.24917725 237.72058105 466.54222107 C236.51566397 467.74451782 235.3124004 468.94847462 234.11102104 470.15430641 C227.05502491 477.23401389 219.8872998 483.83828904 212 490 C211.20075135 490.62798587 210.4015027 491.25597174 209.5780344 491.90298748 C170.02915127 522.78494298 118.97724604 542.93047415 68.42578125 543.203125 C67.54761749 543.21018463 66.66945374 543.21724426 65.76467896 543.22451782 C29.11851613 543.45223926 29.11851613 543.45223926 12 540 C10.98309082 539.80132324 9.96618164 539.60264648 8.91845703 539.39794922 C-29.76716303 531.65850627 -66.23289634 515.90831562 -97 491 C-97.57008789 490.53883789 -98.14017578 490.07767578 -98.72753906 489.60253906 C-109.83519989 480.54018 -120.84214186 471.05741387 -130 460 C-130.81726563 459.07058594 -131.63453125 458.14117188 -132.4765625 457.18359375 C-139.71228349 448.92289868 -146.01068557 440.19787573 -152 431 C-152.37833984 430.42652832 -152.75667969 429.85305664 -153.14648438 429.26220703 C-170.96515172 401.99836638 -182.294305 370.94960746 -188 339 C-188.24339111 337.72914551 -188.24339111 337.72914551 -188.49169922 336.43261719 C-193.57594316 309.20121776 -193.22651699 278.17037496 -188 251 C-187.80132324 249.96456055 -187.60264648 248.92912109 -187.39794922 247.86230469 C-180.10978729 211.23041962 -165.49804053 176.86244506 -143 147 C-142.58169922 146.43748535 -142.16339844 145.8749707 -141.73242188 145.29541016 C-136.76388152 138.64097958 -131.51491526 132.30471171 -125.82788086 126.25195312 C-125.19583457 125.57913551 -124.56378828 124.9063179 -123.91258907 124.21311188 C-113.45420983 113.17198747 -102.61840017 102.49234442 -91.85338712 91.75199318 C-88.61250017 88.51744176 -85.37452577 85.27997711 -82.13621521 82.04284668 C-76.0294746 75.93918977 -69.92019411 69.83808191 -63.80995077 63.73793173 C-56.84279137 56.78202651 -49.8785385 49.82321428 -42.91450417 42.86418056 C-28.61285559 28.57292916 -14.30763927 14.28525369 0 0 Z " fill="#FEFEFE" transform="translate(454,583)"/>
<path d="M0 0 C1.190394 -0.00654048 1.190394 -0.00654048 2.40483636 -0.0132131 C5.06854412 -0.02417608 7.73173501 -0.01374252 10.39543915 -0.00342751 C12.32262579 -0.00688365 14.24981046 -0.01164793 16.17699099 -0.01760924 C21.47643983 -0.03015475 26.77572699 -0.02393268 32.07517648 -0.01465058 C37.78895184 -0.00787498 43.50269901 -0.01833392 49.21646881 -0.02659035 C60.41120229 -0.03994578 71.60587551 -0.03704187 82.80061138 -0.02835242 C91.89700941 -0.02158341 100.99339052 -0.02065577 110.08979034 -0.02392387 C111.38333877 -0.02438357 112.67688719 -0.02484327 114.00963405 -0.0253169 C116.63726946 -0.02627606 119.26490487 -0.0272487 121.89254028 -0.02823468 C145.84171998 -0.03654977 169.7908671 -0.02791967 193.74004156 -0.01220688 C215.60610805 0.0020301 237.47212214 0.00075622 259.33818817 -0.01358986 C283.90088833 -0.02965128 308.46355681 -0.03596985 333.02626181 -0.02675307 C335.64435164 -0.0257974 338.26244147 -0.02485429 340.88053131 -0.02392387 C342.81286925 -0.02322963 342.81286925 -0.02322963 344.78424433 -0.02252137 C353.87206206 -0.01992867 362.95986123 -0.0243085 372.04767609 -0.03136253 C383.11931586 -0.03976734 394.19089181 -0.03751886 405.26252425 -0.0215203 C410.91383861 -0.01362388 416.56504647 -0.01056937 422.21636009 -0.02046776 C427.38659099 -0.02938671 432.55661635 -0.02452803 437.72682852 -0.0085351 C439.60022733 -0.00517542 441.4736434 -0.0069079 443.34703118 -0.01416247 C445.88837683 -0.02325109 448.42901334 -0.01396293 450.97032166 0 C451.70207381 -0.0070235 452.43382596 -0.014047 453.18775243 -0.02128333 C457.8482506 0.03008941 461.01678597 0.94256825 464.98516083 3.37752342 C467.98516083 6.67752342 467.98516083 6.67752342 467.98516083 9.37752342 C467.32516083 9.37752342 466.66516083 9.37752342 465.98516083 9.37752342 C464.63129147 7.72749514 463.2983794 6.06008472 461.98516083 4.37752342 C458.93952281 2.85470442 455.76992144 3.23514226 452.42848492 3.24050903 C451.63582795 3.23785721 450.84317099 3.23520538 450.02649412 3.23247319 C447.34206561 3.22474877 444.65768261 3.22421983 441.97324371 3.22362328 C440.04054879 3.21961073 438.10785471 3.21517286 436.17516166 3.21034372 C430.84199592 3.19834936 425.50883923 3.19272317 420.17566264 3.18816257 C414.43252949 3.18221738 408.68940724 3.17060494 402.94628143 3.15987206 C389.06636684 3.13532459 375.18644863 3.12071821 361.306519 3.10781199 C357.38886275 3.10410201 353.47120685 3.10012862 349.55355096 3.09605932 C325.24568358 3.07082667 300.93781652 3.04874892 276.62993908 3.03633118 C270.99680008 3.03340974 265.36366111 3.03044224 259.73052216 3.02742577 C259.0306605 3.02705486 258.33079885 3.02668395 257.60972926 3.0263018 C234.91065768 3.0141421 212.21166356 2.9831915 189.51262838 2.94150424 C165.52532274 2.89753123 141.53806511 2.87180049 117.55071861 2.86641061 C104.47028185 2.86299105 91.38996731 2.8511716 78.30956841 2.81830788 C67.17301037 2.79037439 56.0365996 2.77927855 44.90000924 2.79050334 C39.21433509 2.79570701 33.52896967 2.79269253 27.84333992 2.7680378 C22.64267819 2.74567348 17.44254923 2.74618487 12.24187896 2.76524167 C10.35625609 2.76805975 8.47059806 2.76234381 6.58503207 2.74742873 C4.02915167 2.72844076 1.47519431 2.74002979 -1.08063984 2.75949097 C-1.81937109 2.74664175 -2.55810234 2.73379253 -3.31921938 2.72055393 C-7.25252187 2.78673908 -8.86801117 3.25671155 -11.94822663 5.79115045 C-15.4673463 10.19534128 -15.1607344 13.67453008 -15.15528107 19.12625694 C-15.15825219 20.04323724 -15.16122331 20.96021755 -15.16428447 21.90498513 C-15.17299858 24.99650763 -15.174482 28.08799154 -15.17597198 31.17952538 C-15.18059824 33.38842922 -15.18562264 35.59733226 -15.19101715 37.80623436 C-15.20416168 43.82072234 -15.2105901 49.83519915 -15.21502781 55.84969926 C-15.21795521 59.60431333 -15.22205938 63.35892431 -15.22653198 67.11353683 C-15.23864383 77.50628854 -15.24902489 87.89903807 -15.25240707 98.29179668 C-15.25262664 98.95718116 -15.25284621 99.62256564 -15.25307243 100.30811329 C-15.2532907 100.97510309 -15.25350898 101.64209289 -15.25373387 102.3292945 C-15.25417734 103.68090141 -15.25462391 105.03250831 -15.25507355 106.38411522 C-15.25529498 107.05456099 -15.25551641 107.72500676 -15.25574455 108.41576906 C-15.25969251 119.27929279 -15.27714584 130.14274944 -15.30043307 141.00624726 C-15.32414158 152.156166 -15.33635067 163.30606027 -15.33777499 174.45600671 C-15.33882482 180.71768412 -15.34477036 186.97926696 -15.3625946 193.24092102 C-15.37903181 199.13008014 -15.38125195 205.01907316 -15.3724556 210.90824699 C-15.37168289 213.07181746 -15.37605855 215.2353967 -15.38591385 217.39894485 C-15.39856448 220.34877591 -15.39279396 223.29801259 -15.38233185 226.24783897 C-15.39038825 227.10737389 -15.39844466 227.96690881 -15.4067452 228.85249025 C-15.36749162 233.57307281 -14.9592446 236.48684118 -12.01483917 240.37752342 C-11.35483917 241.36752342 -10.69483917 242.35752342 -10.01483917 243.37752342 C-13.38813832 241.9816755 -15.05716579 240.45386731 -17.01483917 237.37752342 C-18.32920847 233.43441554 -18.16289344 229.67076781 -18.16201019 225.5599575 C-18.16752522 224.19144744 -18.16752522 224.19144744 -18.17315167 222.79529071 C-18.18420162 219.72536525 -18.18803457 216.65547362 -18.19184113 213.58553123 C-18.19810475 211.38957677 -18.20475145 209.19362336 -18.21175385 206.99767113 C-18.22917202 201.02236641 -18.23971768 195.04706969 -18.24795938 189.07174587 C-18.25310744 185.34005977 -18.25918324 181.60837616 -18.2654705 177.87669182 C-18.28343101 166.875036 -18.29780995 155.87338479 -18.30564691 144.8717169 C-18.30708539 142.85867844 -18.30853676 140.84563999 -18.31000519 138.83260155 C-18.31048893 138.16623652 -18.31097267 137.49987148 -18.31147107 136.81331357 C-18.31977106 126.019081 -18.345108 115.22495926 -18.37758587 104.43077508 C-18.41066487 93.34635618 -18.42833602 82.26198342 -18.43186349 71.17751384 C-18.43421635 64.95487684 -18.44320782 58.73241504 -18.46832466 52.50982475 C-18.49157152 46.65590436 -18.4958521 40.80227494 -18.48556328 34.94832039 C-18.485067 32.80009685 -18.49141443 30.65185915 -18.50511932 28.50367928 C-18.52278924 25.5697777 -18.51575588 22.63692594 -18.50258636 19.70302391 C-18.51355561 18.85388774 -18.52452486 18.00475157 -18.5358265 17.129884 C-18.47392975 11.4142783 -17.49228699 7.9824316 -14.01483917 3.37752342 C-9.37114424 0.44547525 -5.36524513 -0.05149666 0 0 Z " fill="#F6E1D7" transform="translate(597.0148391723633,322.6224765777588)"/>
<path d="M0 0 C6.36734694 0.36734694 6.36734694 0.36734694 9.4375 3.4375 C11 6 11 6 11 8 C10.34 8 9.68 8 9 8 C8.401875 7.21625 7.80375 6.4325 7.1875 5.625 C4.87559356 2.85071227 3.39491889 2.03733633 0 1 C0 0.67 0 0.34 0 0 Z " fill="#F4E1D8" transform="translate(1054,324)"/>
</svg>
